<svg width="132" height="132" viewBox="0 0 132 132" fill="none" xmlns="http://www.w3.org/2000/svg">
<path d="M66 0C29.5403 0 0 29.5403 0 66C0 102.46 29.5403 132 66 132C102.46 132 132 102.46 132 66C132 29.5403 102.46 0 66 0ZM61.7419 87.2903C61.7419 89.6323 59.8258 91.5484 57.4839 91.5484H44.7097C42.3677 91.5484 40.4516 89.6323 40.4516 87.2903V44.7097C40.4516 42.3677 42.3677 40.4516 44.7097 40.4516H57.4839C59.8258 40.4516 61.7419 42.3677 61.7419 44.7097V87.2903ZM91.5484 87.2903C91.5484 89.6323 89.6323 91.5484 87.2903 91.5484H74.5161C72.1742 91.5484 70.2581 89.6323 70.2581 87.2903V44.7097C70.2581 42.3677 72.1742 40.4516 74.5161 40.4516H87.2903C89.6323 40.4516 91.5484 42.3677 91.5484 44.7097V87.2903Z" fill="black"/>
</svg>
